<?xml version="1.0" standalone="no"?>
<!DOCTYPE svg PUBLIC "-//W3C//DTD SVG 20010904//EN"
 "http://www.w3.org/TR/2001/REC-SVG-20010904/DTD/svg10.dtd">
<svg version="1.0" xmlns="http://www.w3.org/2000/svg"
 width="1161.000000pt" height="1161.000000pt" viewBox="0 0 1161.000000 1161.000000"
 preserveAspectRatio="xMidYMid meet">
<metadata>
Created by potrace 1.14, written by Peter Selinger 2001-2017
</metadata>
<g transform="translate(0.000000,1161.000000) scale(0.100000,-0.100000)"
fill="#000000" stroke="none">
<path d="M10415 10149 c-153 -105 -422 -272 -590 -367 -175 -99 -322 -178
-525 -281 -132 -67 -226 -111 -560 -263 -72 -33 -451 -184 -495 -197 -22 -7
-53 -19 -70 -26 -29 -13 -338 -115 -457 -151 -32 -10 -58 -20 -58 -23 -1 -3
-3 -53 -5 -111 -2 -58 -6 -130 -9 -160 -8 -89 -18 -172 -22 -194 -2 -12 -7
-41 -10 -66 -3 -25 -8 -54 -10 -65 -2 -11 -7 -36 -10 -55 -14 -83 -76 -324
-110 -425 -76 -232 -185 -467 -298 -639 -44 -68 -272 -341 -441 -530 -10 -11
-252 -290 -291 -336 -12 -14 -57 -65 -100 -115 -43 -49 -87 -101 -99 -114 -11
-13 -25 -29 -30 -35 -6 -6 -55 -63 -109 -126 -54 -63 -107 -123 -116 -133 -16
-17 -24 -12 -176 119 -87 75 -186 160 -219 189 -33 29 -163 141 -290 250 -126
108 -261 225 -299 258 -174 155 -288 238 -404 296 -77 39 -255 99 -314 107
-24 3 -60 9 -80 14 -69 14 -289 9 -389 -10 -170 -33 -340 -99 -459 -180 -25
-16 -53 -36 -64 -42 -53 -36 -166 -144 -260 -249 -27 -30 -93 -101 -146 -159
-125 -135 -139 -150 -220 -240 -37 -41 -83 -91 -101 -111 -19 -19 -72 -78
-119 -129 -47 -51 -96 -105 -110 -120 -14 -15 -65 -71 -115 -125 -136 -149
-198 -217 -215 -235 -8 -8 -62 -67 -120 -130 -126 -138 -176 -193 -256 -279
-33 -36 -87 -95 -120 -131 -33 -36 -77 -85 -99 -109 -22 -24 -49 -53 -60 -65
-33 -37 -209 -229 -225 -246 -22 -23 -217 -236 -270 -294 -25 -28 -54 -59 -65
-71 -54 -56 -135 -155 -161 -195 -220 -335 -217 -771 7 -1102 181 -266 488
-428 809 -428 118 0 132 2 235 25 102 22 226 77 320 140 95 64 127 95 260 240
55 61 124 136 155 169 30 32 60 64 65 70 34 38 184 204 205 226 20 21 163 178
205 224 32 36 213 234 230 251 11 12 61 66 110 120 80 88 201 220 230 251 5 6
44 49 86 95 42 46 87 96 100 110 13 14 65 70 114 124 50 55 106 116 125 137
19 21 71 78 115 127 44 49 85 90 91 90 6 1 20 -7 31 -17 96 -83 155 -134 257
-222 66 -57 133 -115 150 -130 17 -15 81 -70 141 -121 61 -52 124 -106 140
-120 17 -15 116 -101 220 -191 544 -469 522 -451 630 -505 133 -67 235 -89
400 -87 170 2 315 46 457 140 94 63 150 121 353 369 98 121 182 222 185 225 3
3 30 37 60 75 30 39 57 72 60 75 4 3 98 118 210 255 113 138 207 252 210 255
3 3 23 28 45 55 22 28 44 55 50 61 9 10 44 51 115 134 12 14 47 54 78 90 31
35 77 87 101 115 123 141 380 388 542 520 13 11 47 38 74 61 166 136 447 332
645 449 226 134 573 300 776 371 l51 18 17 115 c9 64 19 132 21 151 3 19 10
58 15 85 5 28 12 66 15 85 19 113 89 427 149 670 26 104 49 191 57 215 16 52
61 208 63 219 1 6 7 27 13 46 6 19 32 100 58 180 64 201 155 454 235 655 74
185 90 223 205 474 31 68 90 189 130 269 l74 144 -65 54 -65 53 -208 -242
c-115 -133 -218 -253 -230 -267 -12 -14 -30 -34 -39 -45 -50 -58 -389 -454
-408 -475 -26 -28 -220 -255 -244 -284 -8 -10 -19 -23 -25 -30 -5 -6 -35 -40
-65 -76 -30 -36 -60 -69 -66 -75 -5 -5 -35 -39 -65 -75 -29 -36 -56 -67 -59
-70 -3 -3 -30 -34 -60 -70 -30 -36 -69 -81 -86 -100 -18 -19 -55 -61 -82 -94
l-50 -59 21 -56 c32 -86 29 -215 -7 -303 -96 -234 -374 -333 -603 -215 -50 27
-131 106 -162 160 -181 318 94 708 448 636 49 -10 56 -9 68 7 15 20 19 25 103
124 30 36 65 76 76 90 12 14 113 133 224 265 111 132 212 251 224 265 12 14
93 110 181 214 145 172 374 442 428 506 12 14 44 52 72 85 27 33 54 65 60 71
5 6 28 33 50 59 22 27 73 87 113 134 l73 86 -48 42 c-26 24 -52 42 -58 42 -5
-1 -82 -50 -170 -110z"/>
<path d="M3918 10145 c-2 -1 -28 -5 -58 -8 -62 -7 -96 -13 -155 -29 -22 -5
-47 -12 -55 -13 -33 -8 -148 -54 -200 -80 -446 -225 -717 -677 -704 -1175 2
-91 5 -118 19 -195 20 -106 72 -260 111 -331 13 -24 36 -65 50 -92 63 -114
202 -267 329 -363 353 -266 835 -327 1245 -156 424 176 725 572 777 1022 40
349 -66 705 -291 970 -124 146 -251 243 -426 328 -96 46 -231 90 -311 102 -24
3 -53 9 -64 12 -19 6 -261 13 -267 8z"/>
<path d="M8338 3895 c-1 -1 -30 -5 -63 -9 -514 -53 -971 -472 -1081 -990 -70
-329 -10 -666 169 -951 17 -27 34 -52 37 -55 3 -3 25 -31 49 -62 171 -225 476
-405 771 -453 25 -4 54 -9 65 -12 33 -6 246 -6 305 2 171 21 355 85 510 178
131 78 297 237 384 367 95 142 180 344 200 480 4 25 11 68 15 97 12 80 5 269
-13 365 -9 47 -30 128 -47 180 -30 90 -105 249 -121 256 -4 2 -8 8 -8 14 0 19
-115 162 -189 235 -163 160 -409 292 -621 332 -30 6 -68 13 -85 16 -33 7 -271
15 -277 10z"/>
</g>
</svg>
